<svg version="1.1" viewBox="0.0 0.0 271.9396325459318 404.8608923884514" fill="none" stroke="none" stroke-linecap="square" stroke-miterlimit="10" xmlns:xlink="http://www.w3.org/1999/xlink" xmlns="http://www.w3.org/2000/svg"><clipPath id="p.0"><path d="m0 0l271.93964 0l0 404.8609l-271.93964 0l0 -404.8609z" clip-rule="nonzero"/></clipPath><g clip-path="url(#p.0)"><path fill="#000000" fill-opacity="0.0" d="m0 0l271.93964 0l0 404.8609l-271.93964 0z" fill-rule="evenodd"/><path fill="#000000" fill-opacity="0.0" d="m-30.647305 -0.6786425l290.4882 0l0 295.59055l-290.4882 0z" fill-rule="evenodd"/><path fill="#f6f6f0" d="m165.5993 172.2326q-0.78125 2.53125 -0.78125 5.0625q0 2.140625 0.578125 3.609375q0.59375 1.453125 1.265625 2.328125q0.6875 0.875 0.875 1.265625q1.953125 1.9375 1.953125 3.890625q0 0.390625 -0.390625 1.953125q-0.78125 2.71875 -3.40625 3.796875q-2.625 1.0625 -8.078125 1.0625l-46.125 0q-4.09375 0 -6.34375 -1.359375q-2.234375 -1.359375 -2.234375 -3.703125q0 -1.171875 0.59375 -2.53125q0.578125 -1.5625 1.640625 -2.4375q1.078125 -0.875 3.03125 -2.03125q3.109375 -1.765625 5.046875 -3.90625q1.953125 -2.140625 3.3125 -7.0l5.0625 -16.734375l-30.359383 0l-5.25 11.09375q-3.3125 7.203125 -3.3125 11.28125q0 2.34375 0.765625 3.8125q0.78125 1.453125 2.34375 3.0q1.359375 1.5625 1.84375 2.640625q0.5 1.0625 0.109375 2.8125q-0.78125 2.921875 -3.21875 4.0q-2.4375 1.0625 -7.6875 1.0625l-28.999996 0q-4.484375 0 -6.8125 -1.65625q-2.34375 -1.65625 -2.34375 -4.375q0 -3.125 2.25 -4.96875q2.234375 -1.84375 6.703125 -3.984375q5.84375 -2.921875 9.34375 -5.734375q3.515625 -2.828125 6.03125 -7.890625l34.656254 -71.82812q7.984375 -16.75 18.78125 -24.234375q10.8125 -7.5 28.515625 -7.5q19.859375 0 30.75 8.078125q10.90625 8.078125 10.90625 22.484375q0 6.03125 -1.9375 12.453125l-19.078125 66.18749zm-38.15625 -36.203125l10.3125 -34.265617q0.78125 -2.328125 0.78125 -4.859375q0 -3.703125 -2.046875 -5.546875q-2.03125 -1.859375 -5.734375 -1.859375q-4.671875 0 -7.984375 2.734375q-3.3125 2.71875 -6.609375 9.734375l-15.96875 34.062492l27.25 0z" fill-rule="nonzero"/><path fill="#000000" fill-opacity="0.0" d="m-12.482666 138.90004l290.4882 0l0 295.59058l-290.4882 0z" fill-rule="evenodd"/><path fill="#f6f6f0" d="m116.709076 335.9519q-13.046867 0 -23.656242 -5.734375q-10.609375 -5.75 -16.84375 -16.9375q-6.21875 -11.203125 -6.21875 -26.78125q0 -11.875 4.078125 -26.46875q8.953125 -31.14061 28.125 -43.98436q19.187492 -12.859375 40.984367 -12.859375q19.859375 0 35.8125 14.40625l5.84375 -5.640625q4.859375 -4.09375 8.359375 -5.640625q3.515625 -1.5625 8.1875 -1.5625q5.0625 0 8.171875 2.4375q3.109375 2.4375 3.109375 6.515625q0 1.5625 -0.578125 3.703125l-7.015625 24.53125q-1.9375 6.21875 -4.5625 8.75q-2.625 2.53125 -7.109375 2.53125q-4.671875 0 -8.28125 -2.328125q-3.59375 -2.34375 -8.265625 -8.375q-6.234375 -8.171875 -11.0 -11.578125q-4.765625 -3.40625 -10.40625 -3.40625q-8.765625 0 -16.65625 8.859375q-7.875 8.84375 -13.71875 29.48436q-3.6875 13.421875 -3.6875 23.15625q0 10.328125 3.984375 15.6875q3.984375 5.34375 11.1875 5.34375q6.234375 0 9.640625 -2.921875q3.40625 -2.921875 5.359375 -10.125l1.359375 -4.859375q0.96875 -3.890625 0.96875 -5.265625q0 -2.328125 -1.078125 -3.296875q-1.0625 -0.984375 -3.59375 -2.140625l-6.8125 -2.53125q-4.484375 -1.765625 -4.484375 -6.4375q0 -1.359375 0.203125 -2.140625q0.78125 -2.53125 2.8125 -3.6875q2.046875 -1.171875 6.328125 -1.171875l58.796875 0.1875q6.421875 0 6.421875 4.09375q0 0.78125 -0.390625 2.34375q-0.78125 2.90625 -2.53125 4.671875q-1.75 1.75 -5.0625 3.5l-5.0625 2.921875q-1.9375 1.15625 -2.921875 2.234375q-0.96875 1.0625 -1.359375 2.625l-10.3125 36.015625q-1.953125 6.421875 -4.390625 8.5625q-2.421875 2.140625 -5.921875 2.140625l-8.1875 0q-4.671875 0 -7.6875 -1.9375q-3.015625 -1.953125 -4.953125 -7.59375l-1.953125 -5.65625q-14.015625 16.359375 -35.03125 16.359375z" fill-rule="nonzero"/><path fill="#f6f6f0" d="m147.29124 72.72379l18.602188 -58.330997l-8.283463 -2.7480316l21.870255 -11.13357l11.263611 22.125696l-8.283463 -2.7480316l-18.602203 58.331z" fill-rule="evenodd"/><path fill="#f6f6f0" d="m112.59646 331.47998l-18.580566 58.364532l8.283463 2.7401428l-21.860374 11.147278l-11.273483 -22.10788l8.283463 2.7401428l18.580566 -58.364532z" fill-rule="evenodd"/><path fill="#f6f6f0" d="m78.37285 154.23026l-59.716545 0.048583984l0 8.866135l-17.732277 -17.717865l17.732277 -17.746704l0 8.86615l59.716545 -0.048568726z" fill-rule="evenodd"/><path stroke="#f6f6f0" stroke-width="2.0" stroke-linejoin="round" stroke-linecap="butt" d="m78.37285 154.23026l-59.716545 0.048583984l0 8.866135l-17.732277 -17.717865l17.732277 -17.746704l0 8.86615l59.716545 -0.048568726z" fill-rule="evenodd"/><path fill="#f6f6f0" d="m193.40817 266.64526l59.716537 -0.048553467l0 -8.86615l17.732285 17.717865l-17.732285 17.746704l0 -8.86615l-59.716537 0.048583984z" fill-rule="evenodd"/><path stroke="#f6f6f0" stroke-width="2.0" stroke-linejoin="round" stroke-linecap="butt" d="m193.40817 266.64526l59.716537 -0.048553467l0 -8.86615l17.732285 17.717865l-17.732285 17.746704l0 -8.86615l-59.716537 0.048583984z" fill-rule="evenodd"/></g></svg>